#N canvas 122 140 237 199 10;
#X obj 31 54 route play stop;
#X obj 31 140 print PLAY;
#X obj 74 112 print STOP;
#X obj 118 83 print OTHER;
#N canvas 161 306 272 173 webserver 0;
#X obj 12 146 outlet;
#X obj 12 65 m2pd;
#X obj 12 11 loadbang;
#X obj 12 119 list trim;
#X obj 12 92 symbol2list;
#X text 98 33 Every 50 ms Check for messages And return them as a list
;
#X obj 68 59 bng 15 250 50 0 empty empty empty 17 7 0 10 -262144 -1
-1;
#X obj 12 38 metro 50;
#X msg 110 11 0;
#X msg 73 11 1;
#X connect 1 0 4 0;
#X connect 2 0 7 0;
#X connect 3 0 0 0;
#X connect 4 0 3 0;
#X connect 7 0 1 0;
#X connect 7 0 6 0;
#X connect 8 0 7 0;
#X connect 9 0 7 0;
#X restore 31 23 pd webserver;
#X connect 0 0 1 0;
#X connect 0 1 2 0;
#X connect 0 2 3 0;
#X connect 4 0 0 0;
